<svg width="20" height="20" viewBox="0 0 20 20" fill="none" xmlns="http://www.w3.org/2000/svg">
<mask id="mask0_203_5657" style="mask-type:alpha" maskUnits="userSpaceOnUse" x="1" y="1" width="18" height="18">
<rect x="1" y="19" width="18" height="18" transform="rotate(-90 1 19)" fill="#D9D9D9"/>
</mask>
<g mask="url(#mask0_203_5657)">
<path d="M13.4925 13.875L14.68 12.6875C14.805 12.5625 14.9508 12.5026 15.1175 12.5078C15.2842 12.513 15.43 12.5781 15.555 12.7031C15.6696 12.8281 15.7295 12.974 15.7347 13.1406C15.7399 13.3073 15.68 13.4531 15.555 13.5781L13.305 15.8281C13.2425 15.8906 13.1748 15.9349 13.1019 15.9609C13.029 15.987 12.9508 16 12.8675 16C12.7842 16 12.706 15.987 12.6331 15.9609C12.5602 15.9349 12.4925 15.8906 12.43 15.8281L10.18 13.5781C10.0654 13.4635 10.0081 13.3203 10.0081 13.1484C10.0081 12.9766 10.0654 12.8281 10.18 12.7031C10.305 12.5781 10.4534 12.5156 10.6253 12.5156C10.7972 12.5156 10.9456 12.5781 11.0706 12.7031L12.2425 13.875L12.2425 5.01563C12.2425 4.83854 12.3024 4.69011 12.4222 4.57031C12.542 4.45052 12.6904 4.39063 12.8675 4.39063C13.0446 4.39063 13.193 4.45052 13.3128 4.57031C13.4326 4.69011 13.4925 4.83854 13.4925 5.01563L13.4925 13.875ZM8.4925 6.15625L8.4925 15.0156C8.4925 15.1927 8.4326 15.3411 8.31281 15.4609C8.19302 15.5807 8.04458 15.6406 7.8675 15.6406C7.69042 15.6406 7.54198 15.5807 7.42219 15.4609C7.3024 15.3411 7.2425 15.1927 7.2425 15.0156L7.2425 6.15625L6.055 7.34375C5.93 7.46875 5.78417 7.52865 5.6175 7.52344C5.45083 7.51823 5.305 7.45313 5.18 7.32813C5.06542 7.20313 5.00552 7.05729 5.00031 6.89063C4.9951 6.72396 5.055 6.57813 5.18 6.45313L7.43 4.20313C7.4925 4.14063 7.56021 4.09636 7.63312 4.07031C7.70604 4.04427 7.78417 4.03125 7.8675 4.03125C7.95083 4.03125 8.02896 4.04427 8.10188 4.07031C8.17479 4.09636 8.2425 4.14063 8.305 4.20313L10.555 6.45313C10.6696 6.56771 10.7269 6.71094 10.7269 6.88281C10.7269 7.05469 10.6696 7.20313 10.555 7.32813C10.43 7.45313 10.2816 7.51563 10.1097 7.51563C9.93781 7.51563 9.78937 7.45313 9.66437 7.32813L8.4925 6.15625Z" fill="#1C1B1F"/>
</g>
</svg>
