<svg width="18" height="23" viewBox="0 0 18 23" fill="none" xmlns="http://www.w3.org/2000/svg">
<path d="M8.8219 6.30136C7.4356 6.30136 6.30136 7.4356 6.30136 8.8219C6.30136 10.2082 7.4356 11.3424 8.8219 11.3424C10.2082 11.3424 11.3424 10.2082 11.3424 8.8219C11.3424 7.4356 10.2082 6.30136 8.8219 6.30136ZM8.8219 0C12.943 0 17.6438 3.10027 17.6438 9.01094C17.6438 12.7665 15.0981 18.6143 9.72929 22.7353C9.2756 23.0882 8.64546 23.0882 8.19176 22.7353C2.82301 18.6017 0 12.7665 0 9.01094C0 3.10027 4.70081 0 8.8219 0Z" fill="#999999"/>
</svg>
