<svg width="9" height="5" viewBox="0 0 9 5" fill="none" xmlns="http://www.w3.org/2000/svg">
<path d="M4.49672 4.5625C4.42172 4.5625 4.3514 4.54948 4.28578 4.52344C4.22015 4.4974 4.1613 4.45833 4.10922 4.40625L1.14578 1.44281C1.02765 1.32469 0.971196 1.1901 0.976404 1.03906C0.981612 0.888021 1.04151 0.755208 1.15609 0.640625C1.27068 0.526042 1.40349 0.46875 1.55453 0.46875C1.70557 0.46875 1.83838 0.526042 1.95297 0.640625L4.49984 3.20312L7.06234 0.640625C7.17693 0.526042 7.30974 0.471354 7.46078 0.476562C7.61182 0.481771 7.74463 0.541667 7.85922 0.65625C7.9738 0.770833 8.03109 0.903646 8.03109 1.05469C8.03109 1.20573 7.97203 1.34 7.8539 1.4575L4.89047 4.40625C4.83422 4.45833 4.77328 4.4974 4.70765 4.52344C4.64203 4.54948 4.57172 4.5625 4.49672 4.5625Z" fill="#1C1B1F"/>
</svg>
