<svg width="15" height="15" viewBox="0 0 15 15" fill="none" xmlns="http://www.w3.org/2000/svg">
<path d="M7.49976 10.3253L5.34143 11.9586C5.23449 12.0364 5.12754 12.0729 5.0206 12.068C4.91365 12.0631 4.81643 12.0315 4.72893 11.9732C4.64143 11.9149 4.57581 11.8347 4.53206 11.7326C4.48831 11.6305 4.48588 11.5163 4.52476 11.3899L5.35601 8.70655L3.06643 6.88363C2.96921 6.80585 2.90845 6.71349 2.88414 6.60655C2.85983 6.4996 2.86713 6.39752 2.90601 6.3003C2.9449 6.20308 3.00567 6.12044 3.08831 6.05238C3.17095 5.98433 3.27546 5.9503 3.40185 5.9503H6.14351L7.00393 3.29613C7.04282 3.16974 7.10845 3.07738 7.20081 3.01905C7.29317 2.96072 7.39282 2.93155 7.49976 2.93155C7.60671 2.93155 7.70636 2.96072 7.79872 3.01905C7.89108 3.07738 7.95671 3.16974 7.9956 3.29613L8.85602 5.9503H11.5977C11.7241 5.9503 11.8286 5.98433 11.9112 6.05238C11.9939 6.12044 12.0546 6.20308 12.0935 6.3003C12.1324 6.39752 12.1397 6.4996 12.1154 6.60655C12.0911 6.71349 12.0303 6.80585 11.9331 6.88363L9.64352 8.70655L10.4748 11.3899C10.5137 11.5163 10.5112 11.6305 10.4675 11.7326C10.4237 11.8347 10.3581 11.9149 10.2706 11.9732C10.1831 12.0315 10.0859 12.0631 9.97893 12.068C9.87199 12.0729 9.76504 12.0364 9.6581 11.9586L7.49976 10.3253Z" fill="#1C1B1F"/>
</svg>
