<svg width="18" height="18" viewBox="0 0 18 18" fill="none" xmlns="http://www.w3.org/2000/svg">
<path d="M14.8494 13.0676L14.0116 12.1929L13.5784 12.7469C15.0039 11.0838 15.7404 8.81493 15.3365 6.4035C14.7782 3.10115 12.0222 0.464022 8.69614 0.0601379C3.67134 -0.557568 -0.557568 3.67134 0.0601379 8.69614C0.464022 12.0222 3.10115 14.7782 6.4035 15.3365C8.81493 15.7404 11.0838 15.0039 12.7469 13.5784L12.2386 13.9789L13.0676 14.8494L16.0485 17.8184C16.5355 18.3055 16.7374 17.7115 17.2245 17.2245C17.7115 16.7374 18.3055 16.5355 17.8184 16.0485L14.8494 13.0676ZM7.72206 13.0676C4.7642 13.0676 2.37653 10.6799 2.37653 7.72206C2.37653 4.7642 4.7642 2.37653 7.72206 2.37653C10.6799 2.37653 13.0676 4.7642 13.0676 7.72206C13.0676 10.6799 10.6799 13.0676 7.72206 13.0676Z" fill="#999999"/>
</svg>
