<svg width="20" height="20" viewBox="0 0 20 20" fill="none" xmlns="http://www.w3.org/2000/svg">
<path d="M18.3332 5.83333V9.16666H1.6665V5.83333C1.6665 5.37499 1.82969 4.98263 2.15609 4.65624C2.48248 4.32986 2.87483 4.16666 3.33317 4.16666H5.99984C5.93039 4.04166 5.88526 3.90972 5.86442 3.77083C5.84359 3.63194 5.83317 3.48611 5.83317 3.33333C5.83317 2.63888 6.07622 2.04861 6.56234 1.56249C7.04846 1.07638 7.63871 0.833328 8.33317 0.833328C8.65262 0.833328 8.95122 0.892356 9.22901 1.01041C9.37798 1.07372 9.52096 1.67731 9.65794 2.2556C9.77638 2.75562 9.89035 3.23672 9.99984 3.33333C10.1086 3.23094 10.2218 2.75111 10.3395 2.25254C10.4772 1.66907 10.6209 1.05991 10.7707 0.999995C11.0485 0.888884 11.3471 0.833328 11.6665 0.833328C12.361 0.833328 12.9512 1.07638 13.4373 1.56249C13.9235 2.04861 14.1665 2.63888 14.1665 3.33333C14.1665 3.48611 14.1526 3.62847 14.1248 3.76041C14.0971 3.89236 14.0554 4.02777 13.9998 4.16666H16.6665C17.1248 4.16666 17.5172 4.32986 17.8436 4.65624C18.17 4.98263 18.3332 5.37499 18.3332 5.83333Z" fill="#ADADAD"/>
<path d="M2.49984 16.6667L2.49984 10.8333H9.1665V18.3333H4.16651C3.70816 18.3333 3.31582 18.1701 2.98942 17.8437C2.66303 17.5174 2.49984 17.125 2.49984 16.6667Z" fill="#ADADAD"/>
<path d="M10.8332 18.3333H15.8332C16.2915 18.3333 16.6839 18.1701 17.0103 17.8437C17.3367 17.5174 17.4998 17.125 17.4998 16.6667L17.4998 10.8333H10.8332V18.3333Z" fill="#ADADAD"/>
</svg>
