<svg width="24" height="24" viewBox="0 0 24 24" fill="none" xmlns="http://www.w3.org/2000/svg">
<path fill-rule="evenodd" clip-rule="evenodd" d="M13.0003 14.3619C13.0003 14.8107 12.5503 15.1778 12.0003 15.1778C11.4503 15.1778 11.0003 14.8107 11.0003 14.3619V6.20326H9.21035C8.76035 6.20326 8.54035 5.76269 8.85035 5.50977L11.6403 3.23349C11.8403 3.07032 12.1503 3.07032 12.3503 3.23349L15.1403 5.50977C15.4603 5.76269 15.2403 6.20326 14.7903 6.20326H13.0003V14.3619ZM16 8.65086H18C19.1 8.65086 20 9.38514 20 10.2826V19.2571C20 20.1546 19.1 20.8889 18 20.8889H6C4.9 20.8889 4 20.1546 4 19.2571V10.2826C4 9.38514 4.9 8.65086 6 8.65086H8C8.55 8.65086 9 9.018 9 9.46672C9 9.91545 8.55 10.2826 8 10.2826H6V19.2571H18V10.2826H16C15.45 10.2826 15 9.91545 15 9.46672C15 9.018 15.45 8.65086 16 8.65086Z" fill="#858585"/>
</svg>
