<svg width="15" height="15" viewBox="0 0 15 15" fill="none" xmlns="http://www.w3.org/2000/svg">
<mask id="mask0_3_417" style="mask-type:alpha" maskUnits="userSpaceOnUse" x="0" y="0" width="15" height="15">
<rect width="15" height="15" fill="#D9D9D9"/>
</mask>
<g mask="url(#mask0_3_417)">
<path d="M6.5 8.5L2.92187 7.17188C2.80729 7.11979 2.71615 7.04687 2.64844 6.95312C2.58073 6.85937 2.54688 6.75521 2.54688 6.64062C2.54688 6.52604 2.57812 6.42448 2.64062 6.33594C2.70312 6.2474 2.79167 6.17708 2.90625 6.125L11.5469 2.71875C11.6615 2.66667 11.7734 2.65625 11.8828 2.6875C11.9922 2.71875 12.0833 2.77083 12.1562 2.84375C12.2292 2.91667 12.2812 3.00781 12.3125 3.11719C12.3438 3.22656 12.3333 3.33854 12.2812 3.45312L8.875 12.0937C8.82292 12.2083 8.7526 12.2969 8.66406 12.3594C8.57552 12.4219 8.47396 12.4531 8.35937 12.4531C8.24479 12.4531 8.14062 12.4193 8.04687 12.3516C7.95312 12.2839 7.88021 12.1927 7.82812 12.0781L6.5 8.5Z" fill="#1273E4"/>
</g>
</svg>
