<svg width="24" height="24" viewBox="0 0 24 24" fill="none" xmlns="http://www.w3.org/2000/svg">
<path fill-rule="evenodd" clip-rule="evenodd" d="M13.0003 14.3622C13.0003 14.8109 12.5503 15.178 12.0003 15.178C11.4503 15.178 11.0003 14.8109 11.0003 14.3622V6.20347H9.21035C8.76035 6.20347 8.54035 5.7629 8.85035 5.50998L11.6403 3.23371C11.8403 3.07053 12.1503 3.07053 12.3503 3.23371L15.1403 5.50998C15.4603 5.7629 15.2403 6.20347 14.7903 6.20347H13.0003V14.3622ZM16 8.65107H18C19.1 8.65107 20 9.38535 20 10.2828V19.2574C20 20.1548 19.1 20.8891 18 20.8891H6C4.9 20.8891 4 20.1548 4 19.2574V10.2828C4 9.38535 4.9 8.65107 6 8.65107H8C8.55 8.65107 9 9.01821 9 9.46694C9 9.91567 8.55 10.2828 8 10.2828H6V19.2574H18V10.2828H16C15.45 10.2828 15 9.91567 15 9.46694C15 9.01821 15.45 8.65107 16 8.65107Z" fill="#858585"/>
</svg>
