<svg width="24" height="24" viewBox="0 0 24 24" fill="none" xmlns="http://www.w3.org/2000/svg">
<path d="M6.5 20C6.0875 20 5.73437 19.8507 5.44062 19.5521C5.14687 19.2535 5 18.9028 5 18.5V7.5C5 7.09722 5.14687 6.74653 5.44062 6.44792C5.73437 6.14931 6.0875 6 6.5 6H8V4.75C8 4.5375 8.07146 4.35937 8.21438 4.21562C8.35729 4.07187 8.53438 4 8.74563 4C8.95688 4 9.13542 4.07187 9.28125 4.21562C9.42708 4.35937 9.5 4.5375 9.5 4.75V6H14.5V4.75C14.5 4.5375 14.5715 4.35937 14.7144 4.21562C14.8573 4.07187 15.0344 4 15.2456 4C15.4569 4 15.6354 4.07187 15.7812 4.21562C15.9271 4.35937 16 4.5375 16 4.75V6H17.5C17.9125 6 18.2656 6.14931 18.5594 6.44792C18.8531 6.74653 19 7.09722 19 7.5V18.5C19 18.9028 18.8531 19.2535 18.5594 19.5521C18.2656 19.8507 17.9125 20 17.5 20H6.5ZM6.5 18.5H17.5V11H6.5V18.5Z" fill="#999999"/>
</svg>
