<svg width="20" height="20" viewBox="0 0 20 20" fill="none" xmlns="http://www.w3.org/2000/svg">
<path d="M2.5 20C1.8125 20 1.22417 19.7764 0.735 19.3291C0.245 18.8811 0 18.3429 0 17.7143V9.42857C0 9.06667 0.0887498 8.72381 0.26625 8.4C0.442916 8.07619 0.6875 7.80952 1 7.6L8.5 0.457143C8.72917 0.304762 8.96875 0.190476 9.21875 0.114286C9.46875 0.0380951 9.72917 0 10 0C10.2708 0 10.5312 0.0380951 10.7812 0.114286C11.0312 0.190476 11.2708 0.304762 11.5 0.457143L19 7.6C19.3125 7.80952 19.5575 8.07619 19.735 8.4C19.9117 8.72381 20 9.06667 20 9.42857V17.7143C20 18.3429 19.7554 18.8811 19.2663 19.3291C18.7763 19.7764 18.1875 20 17.5 20H13.8324C12.9585 20 12.25 19.2915 12.25 18.4176V15.3929C12.25 14.1502 11.2426 13.1429 10 13.1429C8.75736 13.1429 7.75 14.1502 7.75 15.3929V18.4176C7.75 19.2915 7.04153 20 6.16758 20H2.5Z" fill="#999999"/>
</svg>
