<?xml version="1.0" encoding="UTF-8"?>
<svg id="_레이어_1" data-name=" 레이어 1" xmlns="http://www.w3.org/2000/svg" version="1.1" viewBox="0 0 40 40">
  <defs>
    <style>
      .cls-1 {
        fill: #fff;
        stroke-width: 0px;
      }
    </style>
  </defs>
  <path class="cls-1" d="M18.6,21.4h-8.9c-.4,0-.7-.1-1-.4s-.4-.6-.4-1,.1-.7.4-1c.3-.3.6-.4,1-.4h8.9v-8.9c0-.4.1-.7.4-1s.6-.4,1-.4.7.1,1,.4c.3.3.4.6.4,1v8.9h8.9c.4,0,.7.1,1,.4s.4.6.4,1-.1.7-.4,1-.6.4-1,.4h-8.9v8.9c0,.4-.1.7-.4,1s-.6.4-1,.4-.7-.1-1-.4-.4-.6-.4-1v-8.9Z"/>
</svg>