<svg width="15" height="15" viewBox="0 0 15 15" fill="none" xmlns="http://www.w3.org/2000/svg">
<mask id="mask0_3_538" style="mask-type:alpha" maskUnits="userSpaceOnUse" x="0" y="0" width="15" height="15">
<rect width="15" height="15" fill="#D9D9D9"/>
</mask>
<g mask="url(#mask0_3_538)">
<path d="M7.49672 9.5625C7.42172 9.5625 7.3514 9.54948 7.28578 9.52344C7.22015 9.4974 7.1613 9.45833 7.10922 9.40625L4.14578 6.44281C4.02765 6.32469 3.9712 6.1901 3.9764 6.03906C3.98161 5.88802 4.04151 5.75521 4.15609 5.64062C4.27068 5.52604 4.40349 5.46875 4.55453 5.46875C4.70557 5.46875 4.83838 5.52604 4.95297 5.64062L7.49984 8.20312L10.0623 5.64062C10.1769 5.52604 10.3097 5.47135 10.4608 5.47656C10.6118 5.48177 10.7446 5.54167 10.8592 5.65625C10.9738 5.77083 11.0311 5.90365 11.0311 6.05469C11.0311 6.20573 10.972 6.34 10.8539 6.4575L7.89047 9.40625C7.83422 9.45833 7.77328 9.4974 7.70765 9.52344C7.64203 9.54948 7.57172 9.5625 7.49672 9.5625Z" fill="#1C1B1F"/>
</g>
</svg>
