<?xml version="1.0" encoding="UTF-8"?>
<svg id="_레이어_1" data-name=" 레이어 1" xmlns="http://www.w3.org/2000/svg" version="1.1" viewBox="0 0 40 40">
  <defs>
    <style>
      .cls-1 {
        fill: #fff;
        stroke-width: 0px;
      }
    </style>
  </defs>
  <path class="cls-1" d="M11.1,35c-.8,0-1.4-.3-2-.8-.5-.5-.8-1.2-.8-2V9.2h-.3c-.4,0-.7-.1-1-.4-.3-.3-.4-.6-.4-1s0-.7.4-1,.6-.4,1-.4h6.6c0-.4.1-.7.4-1,.3-.3.6-.4,1-.4h7.9c.4,0,.7,0,1,.4s.4.6.4,1h6.6c.4,0,.7,0,1,.4.3.3.4.6.4,1s0,.7-.4,1c-.3.3-.6.4-1,.4h-.3v23.1c0,.8-.3,1.4-.8,2-.5.5-1.2.8-2,.8H11.1ZM28.9,9.2H11.1v23.1h17.7V9.2h0ZM16.6,28.7c.4,0,.7-.1,1-.4s.4-.6.4-1v-13.3c0-.4-.1-.7-.4-1s-.6-.4-1-.4-.7.1-1,.4c-.3.3-.4.6-.4,1v13.3c0,.4.1.7.4,1,.3.3.6.4,1,.4ZM23.4,28.7c.4,0,.7-.1,1-.4s.4-.6.4-1v-13.3c0-.4-.1-.7-.4-1s-.6-.4-1-.4-.7.1-1,.4c-.3.3-.4.6-.4,1v13.3c0,.4.1.7.4,1s.6.4,1,.4Z"/>
</svg>