<svg width="12" height="12" viewBox="0 0 12 12" fill="none" xmlns="http://www.w3.org/2000/svg">
<path d="M10.8 1.09091H10.2V0.545455C10.2 0.245455 9.93 0 9.6 0C9.27 0 9 0.245455 9 0.545455V1.09091H3V0.545455C3 0.245455 2.73 0 2.4 0C2.07 0 1.8 0.245455 1.8 0.545455V1.09091H1.2C0.54 1.09091 0 1.58182 0 2.18182V10.9091C0 11.5091 0.54 12 1.2 12H10.8C11.46 12 12 11.5091 12 10.9091V2.18182C12 1.58182 11.46 1.09091 10.8 1.09091ZM10.2 10.9091H1.8C1.47 10.9091 1.2 10.6636 1.2 10.3636V4.81818H10.8V10.3636C10.8 10.6636 10.53 10.9091 10.2 10.9091Z" fill="#B7D5F6"/>
</svg>
