<svg width="22" height="20" viewBox="0 0 22 20" fill="none" xmlns="http://www.w3.org/2000/svg">
<path d="M11 20C10.7517 20 10.5082 19.9552 10.2695 19.8657C10.0308 19.7761 9.80642 19.6318 9.59635 19.4328L7.90625 17.8209C5.82465 15.8905 3.98655 14.005 2.39193 12.1642C0.797309 10.3234 0 8.31841 0 6.14925C0 4.39801 0.572917 2.93532 1.71875 1.76119C2.86458 0.587065 4.28733 0 5.98698 0C6.96094 0 7.88238 0.21393 8.7513 0.641791C9.62023 1.06965 10.3698 1.68159 11 2.47761C11.6684 1.68159 12.4275 1.06965 13.2773 0.641791C14.1272 0.21393 15.0391 0 16.013 0C17.7127 0 19.1354 0.587065 20.2812 1.76119C21.4271 2.93532 22 4.39801 22 6.14925C22 8.31841 21.2027 10.3234 19.6081 12.1642C18.0135 14.005 16.1753 15.8905 14.0938 17.8209L12.4036 19.4328C12.1936 19.6318 11.9692 19.7761 11.7305 19.8657C11.4918 19.9552 11.2483 20 11 20Z" fill="#999999"/>
</svg>
