<svg width="17" height="16" viewBox="0 0 17 16" fill="none" xmlns="http://www.w3.org/2000/svg">
<path d="M4.15364 9.13753L8.82064 13.8043C9.04847 14.0323 9.15922 14.2995 9.15289 14.606C9.14656 14.9125 9.02947 15.1797 8.80164 15.4075C8.57364 15.6189 8.30639 15.7277 7.99989 15.734C7.69339 15.7404 7.42614 15.6296 7.19814 15.4018L0.59814 8.80178C0.486307 8.68978 0.404557 8.56545 0.35289 8.42878C0.301224 8.29228 0.275391 8.14936 0.275391 8.00003C0.275391 7.8507 0.301224 7.70778 0.35289 7.57128C0.404557 7.43461 0.486307 7.31028 0.59814 7.19828L7.20414 0.592531C7.41947 0.377197 7.68256 0.269531 7.99339 0.269531C8.30422 0.269531 8.57364 0.377197 8.80164 0.592531C9.02947 0.820364 9.14339 1.0907 9.14339 1.40353C9.14339 1.71636 9.02947 1.98678 8.80164 2.21478L4.15364 6.86253H15.0656C15.3848 6.86253 15.6542 6.97228 15.8739 7.19178C16.0934 7.41145 16.2031 7.68086 16.2031 8.00003C16.2031 8.3192 16.0934 8.58861 15.8739 8.80828C15.6542 9.02778 15.3848 9.13753 15.0656 9.13753H4.15364Z" fill="#1C1B1F"/>
</svg>
