<svg width="24" height="24" viewBox="0 0 24 24" fill="none" xmlns="http://www.w3.org/2000/svg">
<mask id="mask0_3_481" style="mask-type:alpha" maskUnits="userSpaceOnUse" x="0" y="0" width="24" height="24">
<rect width="24" height="24" fill="#D9D9D9"/>
</mask>
<g mask="url(#mask0_3_481)">
<path d="M8.15364 13.1375L12.8206 17.8042C13.0485 18.0322 13.1592 18.2995 13.1529 18.606C13.1466 18.9125 13.0295 19.1797 12.8016 19.4075C12.5736 19.6188 12.3064 19.7277 11.9999 19.734C11.6934 19.7403 11.4261 19.6296 11.1981 19.4018L4.59814 12.8018C4.48631 12.6897 4.40456 12.5654 4.35289 12.4288C4.30122 12.2922 4.27539 12.1493 4.27539 12C4.27539 11.8507 4.30122 11.7078 4.35289 11.5713C4.40456 11.4346 4.48631 11.3102 4.59814 11.1982L11.2041 4.5925C11.4195 4.37717 11.6826 4.2695 11.9934 4.2695C12.3042 4.2695 12.5736 4.37717 12.8016 4.5925C13.0295 4.82033 13.1434 5.09067 13.1434 5.4035C13.1434 5.71633 13.0295 5.98675 12.8016 6.21475L8.15364 10.8625H19.0656C19.3848 10.8625 19.6542 10.9722 19.8739 11.1917C20.0934 11.4114 20.2031 11.6808 20.2031 12C20.2031 12.3192 20.0934 12.5886 19.8739 12.8082C19.6542 13.0277 19.3848 13.1375 19.0656 13.1375H8.15364Z" fill="#1C1B1F"/>
</g>
</svg>
