<svg width="24" height="24" viewBox="0 0 24 24" fill="none" xmlns="http://www.w3.org/2000/svg">
<path d="M12 12C11.1667 12 10.4583 11.7083 9.875 11.125C9.29167 10.5417 9 9.83333 9 9C9 8.16667 9.29167 7.45833 9.875 6.875C10.4583 6.29167 11.1667 6 12 6C12.8333 6 13.5417 6.29167 14.125 6.875C14.7083 7.45833 15 8.16667 15 9C15 9.83333 14.7083 10.5417 14.125 11.125C13.5417 11.7083 12.8333 12 12 12ZM6 16.5V16C6 15.6806 6.08681 15.3785 6.26042 15.0938C6.43403 14.809 6.67361 14.5694 6.97917 14.375C7.74306 13.9306 8.55208 13.5903 9.40625 13.3542C10.2604 13.1181 11.125 13 12 13C12.875 13 13.7396 13.1181 14.5938 13.3542C15.4479 13.5903 16.2569 13.9306 17.0208 14.375C17.3264 14.5556 17.566 14.7917 17.7396 15.0833C17.9132 15.375 18 15.6806 18 16V16.5C18 16.9167 17.8542 17.2708 17.5625 17.5625C17.2708 17.8542 16.9167 18 16.5 18H7.5C7.08333 18 6.72917 17.8542 6.4375 17.5625C6.14583 17.2708 6 16.9167 6 16.5Z" fill="#999999"/>
</svg>
