<svg width="20" height="20" viewBox="0 0 20 20" fill="none" xmlns="http://www.w3.org/2000/svg">
<mask id="mask0_3_764" style="mask-type:alpha" maskUnits="userSpaceOnUse" x="0" y="0" width="20" height="20">
<rect width="20" height="20" fill="#D9D9D9"/>
</mask>
<g mask="url(#mask0_3_764)">
<path d="M10 16.4583C9.81944 16.4583 9.64236 16.4271 9.46875 16.3646C9.29514 16.3021 9.13194 16.2014 8.97917 16.0625L7.75 14.9375C6.23611 13.5903 4.89931 12.2743 3.73958 10.9896C2.57986 9.70486 2 8.30556 2 6.79167C2 5.56944 2.41667 4.54861 3.25 3.72917C4.08333 2.90972 5.11806 2.5 6.35417 2.5C7.0625 2.5 7.73264 2.64931 8.36458 2.94792C8.99653 3.24653 9.54167 3.67361 10 4.22917C10.4861 3.67361 11.0382 3.24653 11.6562 2.94792C12.2743 2.64931 12.9375 2.5 13.6458 2.5C14.8819 2.5 15.9167 2.90972 16.75 3.72917C17.5833 4.54861 18 5.56944 18 6.79167C18 8.30556 17.4201 9.70486 16.2604 10.9896C15.1007 12.2743 13.7639 13.5903 12.25 14.9375L11.0208 16.0625C10.8681 16.2014 10.7049 16.3021 10.5312 16.3646C10.3576 16.4271 10.1806 16.4583 10 16.4583Z" fill="#858585"/>
</g>
</svg>
