<svg width="20" height="20" viewBox="0 0 20 20" fill="none" xmlns="http://www.w3.org/2000/svg">
<mask id="mask0_3_457" style="mask-type:alpha" maskUnits="userSpaceOnUse" x="0" y="0" width="20" height="20">
<rect width="20" height="20" fill="#D9D9D9"/>
</mask>
<g mask="url(#mask0_3_457)">
<path d="M9.99994 11.1173L12.3368 13.4542C12.4996 13.6169 12.6858 13.694 12.8956 13.6854C13.1053 13.6768 13.2915 13.5912 13.4541 13.4285C13.6169 13.2658 13.6983 13.0795 13.6983 12.8698C13.6983 12.6601 13.6169 12.4742 13.4541 12.3121L11.1172 9.98959L13.4541 7.66209C13.6169 7.5 13.6983 7.3141 13.6983 7.10438C13.6983 6.89466 13.6169 6.70848 13.4541 6.54584C13.2915 6.38306 13.1053 6.30167 12.8956 6.30167C12.6858 6.30167 12.4996 6.38306 12.3368 6.54584L9.99994 8.88271L7.66307 6.54584C7.50029 6.38306 7.31834 6.30167 7.11723 6.30167C6.91612 6.30167 6.73418 6.38306 6.5714 6.54584C6.40876 6.70848 6.32744 6.89466 6.32744 7.10438C6.32744 7.3141 6.40821 7.50035 6.56973 7.66313L8.88265 10L6.54578 12.3369C6.383 12.4997 6.30591 12.6816 6.31453 12.8827C6.32314 13.0838 6.40876 13.2658 6.5714 13.4285C6.73418 13.5912 6.92043 13.6725 7.13015 13.6725C7.33987 13.6725 7.5255 13.5917 7.68703 13.4302L9.99994 11.1173ZM10.0058 18.1694C8.87814 18.1694 7.81821 17.9569 6.82598 17.5319C5.8339 17.1069 4.96578 16.5224 4.22161 15.7783C3.47758 15.0342 2.89307 14.1663 2.46807 13.1748C2.04307 12.1833 1.83057 11.1218 1.83057 9.99042C1.83057 8.85917 2.04307 7.80091 2.46807 6.81563C2.89307 5.83049 3.47758 4.96584 4.22161 4.22167C4.96578 3.47764 5.83362 2.89313 6.82515 2.46813C7.81668 2.04313 8.87814 1.83063 10.0095 1.83063C11.1408 1.83063 12.199 2.04313 13.1843 2.46813C14.1695 2.89313 15.0341 3.47764 15.7783 4.22167C16.5223 4.96584 17.1068 5.83209 17.5318 6.82042C17.9568 7.80875 18.1693 8.86667 18.1693 9.99417C18.1693 11.1218 17.9568 12.1817 17.5318 13.174C17.1068 14.166 16.5223 15.0342 15.7783 15.7783C15.0341 16.5224 14.1679 17.1069 13.1795 17.5319C12.1912 17.9569 11.1333 18.1694 10.0058 18.1694Z" fill="#ADADAD"/>
</g>
</svg>
