<svg width="24" height="24" viewBox="0 0 24 24" fill="none" xmlns="http://www.w3.org/2000/svg">
<path d="M12 20C11.7969 20 11.5977 19.9642 11.4023 19.8925C11.207 19.8209 11.0234 19.7055 10.8516 19.5463L9.46875 18.2567C7.76562 16.7124 6.26172 15.204 4.95703 13.7313C3.65234 12.2587 3 10.6547 3 8.9194C3 7.51841 3.46875 6.34826 4.40625 5.40896C5.34375 4.46965 6.50781 4 7.89844 4C8.69531 4 9.44922 4.17114 10.1602 4.51343C10.8711 4.85572 11.4844 5.34527 12 5.98209C12.5469 5.34527 13.168 4.85572 13.8633 4.51343C14.5586 4.17114 15.3047 4 16.1016 4C17.4922 4 18.6562 4.46965 19.5938 5.40896C20.5312 6.34826 21 7.51841 21 8.9194C21 10.6547 20.3477 12.2587 19.043 13.7313C17.7383 15.204 16.2344 16.7124 14.5312 18.2567L13.1484 19.5463C12.9766 19.7055 12.793 19.8209 12.5977 19.8925C12.4023 19.9642 12.2031 20 12 20Z" fill="#858585"/>
</svg>
